<?plantuml 1.2026.1beta2?><svg xmlns="http://www.w3.org/2000/svg" xmlns:xlink="http://www.w3.org/1999/xlink" contentStyleType="text/css" data-diagram-type="DESCRIPTION" height="595px" preserveAspectRatio="none" style="width:622px;height:595px;background:#FFFFFF;" version="1.1" viewBox="0 0 622 595" width="622px" zoomAndPan="magnify"><defs/><g><!--cluster Syst?me TalentHub--><g class="cluster" data-qualified-name="Syst.me TalentHub" data-source-line="7" id="ent0005"><rect fill="none" height="463" rx="2.5" ry="2.5" style="stroke:#181818;stroke-width:1;" width="494.07" x="122.4" y="81.43"/><text fill="#000000" font-family="sans-serif" font-size="14" font-weight="bold" lengthAdjust="spacing" textLength="154.3418" x="292.2641" y="96.4251">Syst&#232;me TalentHub</text></g><!--entity UC1--><g class="entity" data-qualified-name="Syst.me TalentHub.UC1" data-source-line="9" id="ent0006"><ellipse cx="242.4411" cy="431.4336" fill="#F1F1F1" rx="48.6111" ry="14.5236" style="stroke:#181818;stroke-width:0.5;"/><text fill="#000000" font-family="sans-serif" font-size="14" lengthAdjust="spacing" textLength="64.5039" x="210.1892" y="436.0821">S'inscrire</text></g><!--entity UC2--><g class="entity" data-qualified-name="Syst.me TalentHub.UC2" data-source-line="10" id="ent0007"><ellipse cx="535.9665" cy="215.4293" fill="#F1F1F1" rx="64.4965" ry="15.2993" style="stroke:#181818;stroke-width:0.5;"/><text fill="#000000" font-family="sans-serif" font-size="14" lengthAdjust="spacing" textLength="92.1279" x="489.9025" y="220.0777">Se connecter</text></g><!--entity UC3--><g class="entity" data-qualified-name="Syst.me TalentHub.UC3" data-source-line="11" id="ent0008"><ellipse cx="242.4371" cy="215.4294" fill="#F1F1F1" rx="71.2971" ry="16.6594" style="stroke:#181818;stroke-width:0.5;"/><text fill="#000000" font-family="sans-serif" font-size="14" lengthAdjust="spacing" textLength="109.6279" x="187.6232" y="220.0779">Se d&#233;connecter</text></g><!--entity UC4--><g class="entity" data-qualified-name="Syst.me TalentHub.UC4" data-source-line="12" id="ent0009"><ellipse cx="242.4366" cy="290.4282" fill="#F1F1F1" rx="103.3566" ry="23.7682" style="stroke:#181818;stroke-width:0.5;"/><text fill="#000000" font-family="sans-serif" font-size="14" lengthAdjust="spacing" textLength="157.5" x="163.6866" y="290.3514">Acc&#233;der au dashboard</text><text fill="#000000" font-family="sans-serif" font-size="14" lengthAdjust="spacing" textLength="62.959" x="210.9571" y="306.6483">Candidat</text></g><!--entity UC5--><g class="entity" data-qualified-name="Syst.me TalentHub.UC5" data-source-line="13" id="ent0010"><ellipse cx="242.4373" cy="504.4253" fill="#F1F1F1" rx="103.7773" ry="23.8553" style="stroke:#181818;stroke-width:0.5;"/><text fill="#000000" font-family="sans-serif" font-size="14" lengthAdjust="spacing" textLength="157.5" x="163.6873" y="504.2085">Acc&#233;der au dashboard</text><text fill="#000000" font-family="sans-serif" font-size="14" lengthAdjust="spacing" textLength="69.3984" x="207.7381" y="520.5054">Recruteur</text></g><!--entity UC6--><g class="entity" data-qualified-name="Syst.me TalentHub.UC6" data-source-line="14" id="ent0011"><ellipse cx="242.4372" cy="140.4346" fill="#F1F1F1" rx="104.0372" ry="23.5646" style="stroke:#181818;stroke-width:0.5;"/><text fill="#000000" font-family="sans-serif" font-size="14" lengthAdjust="spacing" textLength="160.1387" x="162.3678" y="140.689">Acc&#233;der au back-office</text><text fill="#000000" font-family="sans-serif" font-size="14" lengthAdjust="spacing" textLength="44.8643" x="220.005" y="156.9859">Admin</text></g><!--entity UC7--><g class="entity" data-qualified-name="Syst.me TalentHub.UC7" data-source-line="15" id="ent0012"><ellipse cx="242.4398" cy="365.43" fill="#F1F1F1" rx="71.0998" ry="16.62" style="stroke:#181818;stroke-width:0.5;"/><text fill="#000000" font-family="sans-serif" font-size="14" lengthAdjust="spacing" textLength="109.1357" x="187.8719" y="370.0784">G&#233;rer son profil</text></g><!--entity Candidate--><g class="entity" data-qualified-name="Candidate" data-source-line="3" id="ent0002"><ellipse cx="40.6995" cy="267.79" fill="#F1F1F1" rx="8" ry="8" style="stroke:#181818;stroke-width:0.5;"/><path d="M40.6995,275.79 L40.6995,302.79 M27.6995,283.79 L53.6995,283.79 M40.6995,302.79 L27.6995,317.79 M40.6995,302.79 L53.6995,317.79" fill="none" style="stroke:#181818;stroke-width:0.5;"/><text fill="#000000" font-family="sans-serif" font-size="14" lengthAdjust="spacing" textLength="62.959" x="9.22" y="332.2851">Candidat</text></g><!--entity Recruiter--><g class="entity" data-qualified-name="Recruiter" data-source-line="4" id="ent0003"><ellipse cx="40.6992" cy="431.79" fill="#F1F1F1" rx="8" ry="8" style="stroke:#181818;stroke-width:0.5;"/><path d="M40.6992,439.79 L40.6992,466.79 M27.6992,447.79 L53.6992,447.79 M40.6992,466.79 L27.6992,481.79 M40.6992,466.79 L53.6992,481.79" fill="none" style="stroke:#181818;stroke-width:0.5;"/><text fill="#000000" font-family="sans-serif" font-size="14" lengthAdjust="spacing" textLength="69.3984" x="6" y="496.2851">Recruteur</text></g><!--entity Admin--><g class="entity" data-qualified-name="Admin" data-source-line="5" id="ent0004"><ellipse cx="40.7021" cy="103.79" fill="#F1F1F1" rx="8" ry="8" style="stroke:#181818;stroke-width:0.5;"/><path d="M40.7021,111.79 L40.7021,138.79 M27.7021,119.79 L53.7021,119.79 M40.7021,138.79 L27.7021,153.79 M40.7021,138.79 L53.7021,153.79" fill="none" style="stroke:#181818;stroke-width:0.5;"/><text fill="#000000" font-family="sans-serif" font-size="14" lengthAdjust="spacing" textLength="44.8643" x="18.27" y="168.2851">Admin</text></g><!--link Candidate to UC1--><g class="link" data-entity-1="ent0002" data-entity-2="ent0006" data-link-type="dependency" data-source-line="18" id="lnk13"><path d="M60.37,335.9 C72.81,357.64 91.14,383.55 114.4,399.43 C138.16,415.66 163.5303,422.7443 189.1103,426.6943" fill="none" id="Candidate-to-UC1" style="stroke:#181818;stroke-width:1;"/><polygon fill="#181818" points="195.04,427.61,186.7559,422.2834,190.0986,426.847,185.535,430.1897,195.04,427.61" style="stroke:#181818;stroke-width:1;"/></g><!--link Recruiter to UC1--><g class="link" data-entity-1="ent0003" data-entity-2="ent0006" data-link-type="dependency" data-source-line="19" id="lnk14"><path d="M75.58,456.34 C109.42,451.26 155.6065,444.3208 192.3765,438.8008" fill="none" id="Recruiter-to-UC1" style="stroke:#181818;stroke-width:1;"/><polygon fill="#181818" points="198.31,437.91,188.8159,435.2905,193.3654,438.6523,190.0036,443.2018,198.31,437.91" style="stroke:#181818;stroke-width:1;"/></g><!--link Candidate to UC2--><g class="link" data-entity-1="ent0002" data-entity-2="ent0007" data-link-type="dependency" data-source-line="21" id="lnk15"><path d="M53.26,258.85 C70.1,203.97 100.81,108.92 114.4,99.43 C248.24,6 450.0464,148.3703 512.0464,196.9303" fill="none" id="Candidate-to-UC2" style="stroke:#181818;stroke-width:1;"/><polygon fill="#181818" points="516.77,200.63,512.151,191.9314,512.8337,197.547,507.2181,198.2296,516.77,200.63" style="stroke:#181818;stroke-width:1;"/></g><!--link Recruiter to UC2--><g class="link" data-entity-1="ent0003" data-entity-2="ent0007" data-link-type="dependency" data-source-line="22" id="lnk16"><path d="M63.94,499.66 C76.35,517.07 93.52,535.89 114.4,545.43 C208.21,588.31 251.8,586.36 346.47,545.43 C478.8,488.23 521.5313,294.1812 531.5113,236.8312" fill="none" id="Recruiter-to-UC2" style="stroke:#181818;stroke-width:1;"/><polygon fill="#181818" points="532.54,230.92,527.0562,239.101,531.6828,235.846,534.9378,240.4725,532.54,230.92" style="stroke:#181818;stroke-width:1;"/></g><!--link Admin to UC2--><g class="link" data-entity-1="ent0004" data-entity-2="ent0007" data-link-type="dependency" data-source-line="23" id="lnk17"><path d="M63.55,100.78 C76.27,84.78 93.86,67.13 114.4,58.43 C209.38,18.22 245.84,35.81 346.47,58.43 C392.05,68.68 404.53,74.83 441.47,103.43 C478.13,131.81 506.866,171.8285 522.156,195.2085" fill="none" id="Admin-to-UC2" style="stroke:#181818;stroke-width:1;"/><polygon fill="#181818" points="525.44,200.23,523.8617,190.5084,522.7034,196.0454,517.1664,194.887,525.44,200.23" style="stroke:#181818;stroke-width:1;"/></g><!--link Candidate to UC3--><g class="link" data-entity-1="ent0002" data-entity-2="ent0008" data-link-type="dependency" data-source-line="25" id="lnk18"><path d="M72.5,261.47 C82.13,252.28 93.41,243.34 105.4,237.43 C125.89,227.33 144.0873,222.5372 166.2873,219.4472" fill="none" id="Candidate-to-UC3" style="stroke:#181818;stroke-width:1;"/><polygon fill="#181818" points="172.23,218.62,162.7645,215.8989,167.2777,219.3093,163.8674,223.8225,172.23,218.62" style="stroke:#181818;stroke-width:1;"/></g><!--link Recruiter to UC3--><g class="link" data-entity-1="ent0003" data-entity-2="ent0008" data-link-type="dependency" data-source-line="26" id="lnk19"><path d="M53.86,422.98 C72.78,363.55 107.82,255.57 114.4,249.43 C130.75,234.17 147.3521,226.9081 168.8321,222.1481" fill="none" id="Recruiter-to-UC3" style="stroke:#181818;stroke-width:1;"/><polygon fill="#181818" points="174.69,220.85,165.0378,218.8919,169.8084,221.9318,166.7686,226.7024,174.69,220.85" style="stroke:#181818;stroke-width:1;"/></g><!--link Admin to UC3--><g class="link" data-entity-1="ent0004" data-entity-2="ent0008" data-link-type="dependency" data-source-line="27" id="lnk20"><path d="M63.53,150.55 C77.43,160.74 96.19,173.25 114.4,181.43 C137.1,191.64 157.664,197.9268 180.494,203.3768" fill="none" id="Admin-to-UC3" style="stroke:#181818;stroke-width:1;"/><polygon fill="#181818" points="186.33,204.77,178.5048,198.7896,181.4667,203.609,176.6472,206.5709,186.33,204.77" style="stroke:#181818;stroke-width:1;"/></g><!--link Candidate to UC4--><g class="link" data-entity-1="ent0002" data-entity-2="ent0009" data-link-type="dependency" data-source-line="29" id="lnk21"><path d="M72.47,296.36 C90.85,295.71 109.3737,295.0594 134.0037,294.1994" fill="none" id="Candidate-to-UC4" style="stroke:#181818;stroke-width:1;"/><polygon fill="#181818" points="140,293.99,130.8659,290.3065,135.003,294.1645,131.1451,298.3016,140,293.99" style="stroke:#181818;stroke-width:1;"/></g><!--link Recruiter to UC5--><g class="link" data-entity-1="ent0003" data-entity-2="ent0010" data-link-type="dependency" data-source-line="30" id="lnk22"><path d="M75.58,468.73 C100.18,474.02 128.5742,480.1383 159.5842,486.8083" fill="none" id="Recruiter-to-UC5" style="stroke:#181818;stroke-width:1;"/><polygon fill="#181818" points="165.45,488.07,157.4924,482.2669,160.5618,487.0186,155.8101,490.088,165.45,488.07" style="stroke:#181818;stroke-width:1;"/></g><!--link Admin to UC6--><g class="link" data-entity-1="ent0004" data-entity-2="ent0011" data-link-type="dependency" data-source-line="31" id="lnk23"><path d="M63.45,134.2 C82.16,134.85 104.5836,135.6409 133.2636,136.6409" fill="none" id="Admin-to-UC6" style="stroke:#181818;stroke-width:1;"/><polygon fill="#181818" points="139.26,136.85,130.4049,132.5388,134.263,136.6758,130.1261,140.534,139.26,136.85" style="stroke:#181818;stroke-width:1;"/></g><!--link Candidate to UC7--><g class="link" data-entity-1="ent0002" data-entity-2="ent0012" data-link-type="dependency" data-source-line="33" id="lnk24"><path d="M72.68,313.39 C85.39,319.55 100.39,326.33 114.4,331.43 C138.85,340.35 160.8975,346.6112 184.2875,352.4312" fill="none" id="Candidate-to-UC7" style="stroke:#181818;stroke-width:1;"/><polygon fill="#181818" points="190.11,353.88,182.3422,347.8252,185.2579,352.6727,180.4105,355.5885,190.11,353.88" style="stroke:#181818;stroke-width:1;"/></g><!--link Recruiter to UC7--><g class="link" data-entity-1="ent0003" data-entity-2="ent0012" data-link-type="dependency" data-source-line="34" id="lnk25"><path d="M75.61,427.09 C87.13,416.97 100.6,406.69 114.4,399.43 C135.82,388.18 155.4359,381.769 177.9259,376.539" fill="none" id="Recruiter-to-UC7" style="stroke:#181818;stroke-width:1;"/><polygon fill="#181818" points="183.77,375.18,174.0979,373.3225,178.8999,376.3125,175.9099,381.1146,183.77,375.18" style="stroke:#181818;stroke-width:1;"/></g><!--link UC4 to UC2--><g class="link" data-entity-1="ent0009" data-entity-2="ent0007" data-link-type="dependency" data-source-line="36" id="lnk26"><path d="M321.96,274.9 C358.5,267.19 402.43,257.21 441.47,246.43 C460.59,241.15 475.9052,236.2386 493.1452,230.3186" fill="none" id="UC4-to-UC2" style="stroke:#181818;stroke-width:1;stroke-dasharray:7,7;"/><polygon fill="#181818" points="498.82,228.37,489.0088,227.5098,494.091,229.9939,491.607,235.0761,498.82,228.37" style="stroke:#181818;stroke-width:1;"/><text fill="#000000" font-family="sans-serif" font-size="13" lengthAdjust="spacing" textLength="63.0068" x="377.47" y="242.4969">&#171;include&#187;</text></g><!--link UC5 to UC2--><g class="link" data-entity-1="ent0010" data-entity-2="ent0007" data-link-type="dependency" data-source-line="37" id="lnk27"><path d="M307.07,485.37 C320.83,479.59 334.75,472.34 346.47,463.43 C436.25,395.21 502.0517,278.928 524.4017,236.148" fill="none" id="UC5-to-UC2" style="stroke:#181818;stroke-width:1;stroke-dasharray:7,7;"/><polygon fill="#181818" points="527.18,230.83,519.4672,236.9548,524.8647,235.2616,526.5578,240.6592,527.18,230.83" style="stroke:#181818;stroke-width:1;"/><text fill="#000000" font-family="sans-serif" font-size="13" lengthAdjust="spacing" textLength="63.0068" x="377.47" y="362.4969">&#171;include&#187;</text></g><!--link UC6 to UC2--><g class="link" data-entity-1="ent0011" data-entity-2="ent0007" data-link-type="dependency" data-source-line="38" id="lnk28"><path d="M312.52,158.21 C367.75,172.42 437.6991,190.4155 485.0191,202.5855" fill="none" id="UC6-to-UC2" style="stroke:#181818;stroke-width:1;stroke-dasharray:7,7;"/><polygon fill="#181818" points="490.83,204.08,483.11,197.9644,485.9876,202.8346,481.1173,205.7122,490.83,204.08" style="stroke:#181818;stroke-width:1;"/><text fill="#000000" font-family="sans-serif" font-size="13" lengthAdjust="spacing" textLength="63.0068" x="377.47" y="172.4969">&#171;include&#187;</text></g><?plantuml-src ZP6_ReCm48TtFyM9fHEH2W6aAaAA6DgvBLiMOn-9LM9N_ZDKLT-dF0SlLc856k96wkRpz_lEzhd3re9LeCN-O84BZSmA9GcXp2eDKKKb5vpQ2AY1gS29FYFJpgBJ7ljAMDGJtlAZa1xv5I6dxbJkEuJevSFOuVk8y4exbFR9DH5y4WBW339gJeax8GtJuvLyYxgwNr04fgGS6w8-y-IAyw6_ZgINaIrZGyzH0tN0gJaqYcg-auidrzNw7yfo3dMLtN8QojvYrRQ2uKx-ZgUkyalZSUZrc3TAmhjMhUZEeO9y4J9_0iHnwQSopttU2K9944g8Ftwk0YKDb7IXfA6o3fHieUIXKWHAGSZO2LOhVozuWCr6IDOvZcKvakmcoVycFm00?></g></svg>